<svg xmlns="http://www.w3.org/2000/svg" viewBox="0 0 110 160" preserveAspectRatio="xMaxYMax meet">
  <g fill="#fff" opacity=".16"><path d="M66.1 42.0 C69.1 100.0 68.2 154.0 67.6 160.0 L79.6 160.0 C80.2 154.0 76.9 100.0 73.9 42.0 Z"/><path d="M70.0 40.0 L40.3 44.2 L45.5 42.3 L40.0 41.5 L45.4 40.1 L40.0 38.8 L45.5 37.9 L40.3 36.1 L45.8 35.7 L40.7 33.5 L46.3 33.6 L41.4 30.9 L46.9 31.5 L42.4 28.3 L47.8 29.4 L43.5 25.9 Z"/><path d="M70.0 40.0 L44.0 25.0 L49.3 26.8 L45.5 22.7 L50.5 25.0 L47.1 20.6 L52.0 23.3 L48.9 18.6 L53.5 21.7 L50.9 16.8 L55.2 20.3 L53.1 15.2 L57.1 19.1 L55.4 13.8 L59.0 18.0 L57.8 12.6 Z"/><path d="M70.0 40.0 L61.5 13.8 L64.0 18.2 L63.9 13.1 L66.0 17.7 L66.3 12.6 L68.0 17.5 L68.8 12.4 L70.0 17.4 L71.2 12.4 L72.0 17.5 L73.7 12.6 L74.0 17.7 L76.1 13.1 L76.0 18.2 L78.5 13.8 Z"/><path d="M70.0 40.0 L82.2 12.6 L81.0 18.0 L84.6 13.8 L82.9 19.1 L86.9 15.2 L84.8 20.3 L89.1 16.8 L86.5 21.7 L91.1 18.6 L88.0 23.3 L92.9 20.6 L89.5 25.0 L94.5 22.7 L90.7 26.8 L96.0 25.0 Z"/><path d="M70.0 40.0 L96.5 25.9 L92.2 29.4 L97.6 28.3 L93.1 31.5 L98.6 30.9 L93.7 33.6 L99.3 33.5 L94.2 35.7 L99.7 36.1 L94.5 37.9 L100.0 38.8 L94.6 40.1 L100.0 41.5 L94.5 42.3 L99.7 44.2 Z"/><path d="M70.0 40.0 L49.9 62.3 L52.7 57.5 L48.0 60.4 L51.2 55.9 L46.3 58.4 L49.9 54.2 L44.7 56.2 L48.7 52.3 L43.4 53.8 L47.7 50.3 L42.2 51.4 L46.8 48.3 L41.3 48.8 L46.2 46.2 L40.7 46.2 Z"/><path d="M70.0 40.0 L99.3 46.2 L93.8 46.2 L98.7 48.8 L93.2 48.3 L97.8 51.4 L92.3 50.3 L96.6 53.8 L91.3 52.3 L95.3 56.2 L90.1 54.2 L93.7 58.4 L88.8 55.9 L92.0 60.4 L87.3 57.5 L90.1 62.3 Z"/></g>
  <g fill="#fff" opacity=".10"><path d="M27.4 80.0 C25.4 119.0 23.2 154.0 23.6 160.0 L31.6 160.0 C31.2 154.0 30.6 119.0 32.6 80.0 Z"/><path d="M30.0 78.0 L10.2 80.8 L13.7 79.6 L10.0 79.0 L13.6 78.1 L10.0 77.2 L13.7 76.6 L10.2 75.4 L13.8 75.2 L10.5 73.6 L14.2 73.7 L10.9 71.9 L14.6 72.3 L11.6 70.2 L15.2 71.0 L12.3 68.6 Z"/><path d="M30.0 78.0 L12.7 68.0 L16.2 69.2 L13.6 66.5 L17.0 68.0 L14.7 65.1 L18.0 66.8 L16.0 63.8 L19.0 65.8 L17.3 62.6 L20.2 64.9 L18.7 61.5 L21.4 64.0 L20.3 60.5 L22.7 63.3 L21.9 59.7 Z"/><path d="M30.0 78.0 L24.3 60.5 L26.0 63.5 L25.9 60.1 L27.3 63.2 L27.5 59.8 L28.6 63.0 L29.2 59.6 L30.0 62.9 L30.8 59.6 L31.4 63.0 L32.5 59.8 L32.7 63.2 L34.1 60.1 L34.0 63.5 L35.7 60.5 Z"/><path d="M30.0 78.0 L38.1 59.7 L37.3 63.3 L39.7 60.5 L38.6 64.0 L41.3 61.5 L39.8 64.9 L42.7 62.6 L41.0 65.8 L44.0 63.8 L42.0 66.8 L45.3 65.1 L43.0 68.0 L46.4 66.5 L43.8 69.2 L47.3 68.0 Z"/><path d="M30.0 78.0 L47.7 68.6 L44.8 71.0 L48.4 70.2 L45.4 72.3 L49.1 71.9 L45.8 73.7 L49.5 73.6 L46.2 75.2 L49.8 75.4 L46.3 76.6 L50.0 77.2 L46.4 78.1 L50.0 79.0 L46.3 79.6 L49.8 80.8 Z"/><path d="M30.0 78.0 L16.6 92.9 L18.5 89.7 L15.3 91.6 L17.5 88.6 L14.2 90.2 L16.6 87.4 L13.1 88.8 L15.8 86.2 L12.2 87.2 L15.1 84.9 L11.5 85.6 L14.6 83.5 L10.9 83.9 L14.1 82.1 L10.4 82.2 Z"/><path d="M30.0 78.0 L49.6 82.2 L45.9 82.1 L49.1 83.9 L45.4 83.5 L48.5 85.6 L44.9 84.9 L47.8 87.2 L44.2 86.2 L46.9 88.8 L43.4 87.4 L45.8 90.2 L42.5 88.6 L44.7 91.6 L41.5 89.7 L43.4 92.9 Z"/></g>
</svg>
